<svg width="82" height="82" viewBox="0 0 82 82" fill="none" xmlns="http://www.w3.org/2000/svg">
<path fill-rule="evenodd" clip-rule="evenodd" d="M80.3334 41C80.3334 62.7232 62.7233 80.3333 41.0001 80.3333C19.2769 80.3333 1.66675 62.7232 1.66675 41C1.66675 19.2768 19.2769 1.66667 41.0001 1.66667C62.7233 1.66667 80.3334 19.2768 80.3334 41ZM81.3334 41C81.3334 63.2755 63.2756 81.3333 41.0001 81.3333C18.7246 81.3333 0.666748 63.2755 0.666748 41C0.666748 18.7245 18.7246 0.666672 41.0001 0.666672C63.2756 0.666672 81.3334 18.7245 81.3334 41ZM56.0203 34.0202L56.3739 33.6667L55.6668 32.9596L55.3132 33.3131L37.3334 51.2929L26.687 40.6465L26.3334 40.2929L25.6263 41L25.9799 41.3536L36.9799 52.3536L37.3334 52.7071L37.687 52.3536L56.0203 34.0202Z" fill="#1ED77E"/>
</svg>
